<?xml version="1.0" encoding="UTF-8"?>
<svg id="Layer_1" xmlns="http://www.w3.org/2000/svg" version="1.1" viewBox="0 0 1920 1080">
  <!-- Generator: Adobe Illustrator 29.7.1, SVG Export Plug-In . SVG Version: 2.1.1 Build 8)  -->
  <defs>
    <style>
      .st0 {
        fill: #C9B896;
      }
    </style>
  </defs>
  <polygon class="st0" points="2802.34 -928.83 2801.83 -925.95 2802.34 -925.65 2802.34 -928.83"/>
  <polygon class="st0" points="1926.31 78.12 1926.04 78.28 1926.31 79.81 1926.31 78.12"/>
  <path class="st0" d="M1917.93,44.82l-5.16-14.17h-15.08l11.55-9.69-.33-.91h0s-4.83-13.26-4.83-13.26l13.06,7.54,9.2-7.72v-3.62l-9.5,7.97-14.24-8.23-2.8-7.7-5.42-14.89,11.22-1.98,12.45-2.19,8.29,4.78v-3.21l-4.03-2.33,4.03-.71v-2.82l-7.78,1.37-14.24-8.22,2.86-16.2,18.42-15.45h0l.74,1.29v-5.55l-4.74-8.21h-9.5l1.65-9.35-7.27-6.11h.01s-4.34-.01-4.34-.01h.01s-18.42,15.47-18.42,15.47h-16.44l-5.63-15.46h.01s-2.96-.01-2.96-.01h.01s-2.28,6.28-2.28,6.28l-2.47,6.78-.88,2.41h-25.2s-.01,0-.01,0l-15.7-9.06-11.06-6.38h.02s-5.59-.01-5.59-.01h.02s-9.79,5.67-9.79,5.67l.69,1.2,4.96,8.6h-11.31v11.31l-9.8-5.66-5.66,9.8h0s-5.66-9.8-5.66-9.8l-9.79,5.66v-11.31h-11.31l5.65-9.8h0s-9.79-5.66-9.79-5.66h.02s-5.6,0-5.6,0h.02s-7.31,4.23-7.31,4.23l-19.45,11.23h-25.2l-5.62-15.45h0s-2.96,0-2.96,0h0s-4.14,11.38-4.14,11.38l-.6,1.63-.63,1.72-.26.73h-16.45l-18.41-15.45h.01s-4.34,0-4.34,0h.01s-7.26,6.11-7.26,6.11h0s-.01.01-.01.01l.14.79v.08s1.51,8.47,1.51,8.47h-9.49l-4.75,8.22-7.28-6.1-8.92,3.25-1.65-9.35-8.92-3.25.3-.51,4.45-7.71h0s-3.21-.01-3.21-.01h.01s-4.19,7.27-4.19,7.27l-10.73-3.9-9.22-3.36h.02s-8.14,0-8.14,0h.01s-14.17,5.16-14.17,5.16v15.09l-13.64-16.26,3.34-3.98h0s-3.63,0-3.63,0h.01s-1.53,1.83-1.53,1.83l-1.53-1.82h.01s-3.63,0-3.63,0h0s3.34,3.99,3.34,3.99l-13.64,16.26v-15.08l-.91-.33h0s-13.26-4.83-13.26-4.83h0s.01,0,.01,0h-8.13.01s-12.05,4.39-12.05,4.39l-7.9,2.87-4.19-7.26h.01s-3.26,0-3.26,0h0s4.74,8.23,4.74,8.23l-8.92,3.25-1.65,9.35-8.92-3.25-7.27,6.1v-.02s-.01,5.56-.01,5.56l11.28,19.54-2.43,13.77-.43,2.43-7.59,1.34-.83.15v2.82l9.86-1.74h0s.96-.17.96-.17l2.62-14.85h0s0,0,0,0l7.06,12.22.48.84,14.85-2.61-9.7,11.55,11.17,19.34-19.34-11.16-.74.62-.26.22-10.54,8.84,2.62-14.85-.84-.49-8.19-4.72v3.21l4.31,2.48,1.65.95-2.86,16.19-3.1,2.6v3.62l2.35-1.97-2.35,13.34v-.02l-.27,1.54.27.16h0s19.07,11.01,19.07,11.01h-19.07v2.77h23.88l26.77,15.46-14.77,8.53-11.99,6.93h-23.88v2.77h19.07l-19.07,11h0s-.27.16-.27.16l.27,1.54v-.02l1.36,7.73.99,5.6-2.35-1.97v3.62l3.1,2.6,2.86,16.19-5.96,3.44v3.21l9.03-5.21-2.62-14.85,11.55,9.69,19.35-11.16-11.17,19.34.63.74,3.17,3.78,5.9,7.03-14.85-2.62-7.54,13.06-2.62-14.86-10.82-1.9v2.82l8.42,1.48,2.86,16.2-5.58,9.66-5.7,9.88v5.55-.02s7.29,6.1,7.29,6.1l.75-.27,8.17-2.97,1.65,9.35,8.92,3.25-4.74,8.22h0s3.2,0,3.2,0h0s4.19-7.26,4.19-7.26l19.94,7.26h-.01s8.14,0,8.14,0h-.01s14.17-5.16,14.17-5.16v-15.09l13.64,16.26-3.35,3.98h.01s3.62,0,3.62,0h0s1.53-1.83,1.53-1.83l1.53,1.83h0s3.62,0,3.62,0h0s-3.34-3.99-3.34-3.99l13.65-16.26v15.09l2.83,1.03,11.34,4.13h0s-.01,0-.01,0h8.14-.01s19.94-7.26,19.94-7.26l2.15,3.72,2.04,3.54h0s3.21,0,3.21,0h0s-4.74-8.22-4.74-8.22l8.92-3.25h0s1.6-9.09,1.6-9.09l.04-.26,8.92,3.25,7.27-6.1.48.84,4.26,7.39h9.5l-1.65,9.35,7.27,6.1h0s4.33,0,4.33,0h0s6.2-5.2,6.2-5.2l12.21-10.25h16.45l5.48,15.06.11.31.03.08h0s2.96,0,2.96,0h0s1.85-5.09,1.85-5.09l3.77-10.36h25.21l26.76,15.45h0s5.56,0,5.56,0h0s9.79-5.65,9.79-5.65h0s-5.65-9.8-5.65-9.8h11.31v-11.31l9.79,5.65h0s0,0,0,0l.69-1.2,2.22-3.85,2.74-4.74,5.66,9.79,1.2-.69,1.38-.8,7.22-4.17v11.31h11.31l-5.65,9.79h0s9.79,5.66,9.79,5.66h5.55s26.76-15.45,26.76-15.45h25.21l5.62,15.45h2.95,0s.14-.4.14-.4l5.48-15.06h16.45l6.22,5.22,12.2,10.24h4.31l7.28-6.1-.78-4.41-.87-4.94h9.5l2.15-3.72,2.59-4.49v-5.56l-.74,1.29-8.21-6.89-10.21-8.57-1.67-9.46-1.19-6.73,2.29-1.32.14-.08.17-.1.13-.08.07-.04,11.45-6.61h.05s7.72,1.37,7.72,1.37v-2.82l-4.03-.71,4.03-2.33v-3.21l-8.29,4.79-23.68-4.18,8.22-22.59,14.24-8.22.63.53,8.86,7.44v-3.63l-9.2-7.72-13.06,7.54,5.16-14.17-11.56-9.7h15.09l.33-.91.15-.4,4.68-12.86,5.15,14.17h3.26v-2.77h-1.32l-5.62-15.45,5.62-15.45h1.32v-2.78h-3.26l-5.15,14.17ZM1900.31,4.63h0s.46,1.25.46,1.25l.67,1.85.14.39.14.38.46,1.25,1.49,4.1,2.28,6.25-.88.73-.45.38-1.64,1.37-9.64,8.09h-24.04l4.18-23.68,12.6-10.57,14.25,8.22ZM1842.72,126.39h0s1.97,11.14,1.97,11.14l.33,1.88.32,1.83-11.55-9.69-19.34,11.16,11.16-19.33h0s0,0,0,0l-8.28-9.86-.29-.34-1.13-1.35,14.85,2.62,7.54-13.06,2.62,14.85.96.17h0s8.67,1.53,8.67,1.53l5.22.92-13.06,7.54h0ZM1714.84,142.7l-19.33-11.16-11.55,9.69.99-5.64,1.63-9.21-.84-.49-3.14-1.81-9.07-5.24,13.89-2.45h0s.96-.17.96-.17l2.62-14.85,3.06,5.3,4.48,7.76.96-.17h0s6.59-1.16,6.59-1.16l7.3-1.29-9.69,11.55h0s11.16,19.33,11.16,19.33ZM1636.26,137.28l-7.57,6.35-3.24,2.71,2.45-13.89.17-.97-12.93-7.46-.13-.08,20.9-3.68,1.78,4.88,5.12-.9h0s0,0,0,0l4.52,12.41.59,1.61,2.15,5.91-13.06-7.53h0s-.74.62-.74.62ZM1515.87,85.34l3.98,6.89,11.48,19.89v25.19l-15.46,5.63-15.46-5.63v-25.2l15.46-26.77ZM1500.42,106.56v-27.7l8.78-5.07,5.07,8.78-6.55,11.35-7.3,12.65ZM1517.48,82.56l5.07-8.78,8.79,5.07v27.71l-13.85-24ZM1521.53,69.99l-5.66,9.8-5.66-9.8-1.2.69-8.6,4.96v-11.31h-11.31l5.66-9.8-1.2-.69-8.6-4.96,9.8-5.66-5.66-9.8h11.31v-11.31l9.8,5.66,2.28-3.95,3.38-5.85,5.66,9.8,1.2-.69,8.6-4.97v11.31h11.31l-5.65,9.8,1.2.69,8.6,4.96-9.8,5.66.69,1.2.74,1.28,4.22,7.32h-11.31v11.31l-9.8-5.66ZM1497.64,67.11v10.14l-23.99,13.85,13.85-23.99h10.14ZM1487.5,30.65l-7.02-12.15-6.83-11.84,23.99,13.85v10.14h-10.14ZM1520.59,4.24l-.35.61-4.37,7.57-15.46-26.77v-25.2l15.45-5.62,15.46,5.63V-14.36l-10.73,18.59ZM1531.33-8.8v27.71l-8.79,5.07-5.07-8.79,13.85-24ZM1514.27,15.19l-5.07,8.79-8.78-5.07V-8.8l13.85,23.99ZM1628.06-33.74h0s-2.61-14.85-2.61-14.85l11.55,9.69,3.94-2.28,9.12-5.26-7.26,19.94-5.12-.91-1.05,2.89-.73,1.99-20.9-3.69h.01s.23-.14.23-.14l.13-.08,12.68-7.32h0ZM1686.4-29.58h0s0,0,0,0l-2.45-13.89,7.61,6.38.42.36,3.52,2.95,8.43-4.87,10.9-6.29-11.16,19.34.62.74.73.88,8.33,9.93-13.89-2.45h0s-.96-.17-.96-.17l-7.54,13.06-2.62-14.85-.96-.17h0s-8.3-1.46-8.3-1.46l-5.59-.99,13.05-7.54h0s-.17-.95-.17-.95ZM1639.91,116.75l-2.19.39h0s0,0,0,0l-4.35-11.94-2.91-8,13.06,7.54,11.55-9.69-2.62,14.85.84.49h0s9.65,5.57,9.65,5.57l2.56,1.48-11.65,2.06-9.24,1.63-1.47-4.03-.31-.86-2.92.52ZM1641.83,121.61l-2.34.41-.81-2.24,2.34-.41.81,2.23ZM1603.25,78.28h0s-19.34-11.17-19.34-11.17h22.33l3.35-9.22,1.8-4.95,5.16,14.17h15.09l-11.55,9.69h0s-.01,0-.01,0l.33.91,3.59,9.85.11.3,1.13,3.1-13.06-7.54-11.55,9.69,2.62-14.85h0ZM1600.63,4.63l9.89,8.3.46.39.17.14.04.03.25.21.75.62,12.23-7.06.83-.48-5.16,14.17,11.55,9.69h-15.09l-5.16,14.16-5.15-14.16h-22.33l19.34-11.17-2.61-14.85ZM1642.84-18.47l.79-2.17.99-2.71,13.09,2.31.41.07,7.4,1.31-13.06,7.54,2.62,14.85-11.55-9.69-13.06,7.54,1.63-4.48.13-.35.06-.16.05-.15.18-.49,5.21-14.31,5.12.91ZM1638.68-22.03l.81-2.23,2.34.41-.03.07-.78,2.16-2.34-.41ZM1686.1,4.83l-4.87,8.43-4.44,7.69-18.42-15.45-2.86-16.19,3.35-1.93,10.89-6.28,16.19,2.85,2.86,16.2-2.71,4.7ZM1689.57,4.39l1.14,6.47,2.54,14.42-1.89.69-5.98,2.17-6.42-5.39,4.76-8.25,5.85-10.12ZM1660.66,63.34l-.18.99h-21.22l2.92-2.45,13.34-11.19h0l2.02,1.69.08.07,4.32,3.63-1.28,7.26ZM1662.81,67.11h8.39l4.19,7.26-16.25,13.64,2.19-12.44,1.49-8.46ZM1636.26,63.23l-1.31,1.1h-16.44l-5.62-15.45,5.62-15.45h16.44l18.42,15.45-17.1,14.35ZM1655.52,47.07l-7.87-6.61-8.38-7.03h21.22l.14.78h0s.02.14.02.14l.12.72h0s.07.41.07.41l1.09,6.2-4.28,3.59-2.14,1.8ZM1659.13,9.75l16.25,13.64-4.19,7.26h-8.39l-3.68-20.9ZM1643.23-3.59l12.59,10.57,4.18,23.68h-24.04l-12.6-10.57,5.62-15.45,14.25-8.22ZM1609.92,48.88l-5.62,15.45h-25.2l-26.76-15.45,26.76-15.45h25.2l5.62,15.45ZM1582.72,28.13l-4.37,2.52h-30.91l15.45-26.77,21.82-12.6,12.6,10.57,2.86,16.19-17.46,10.08ZM1573.54,33.43l-15.31,8.84-8.67,5.01-8.78-5.07,5.07-8.78h27.7ZM1565.98,59.97l7.57,4.37h-27.7l-5.07-8.78,8.78-5.07,16.42,9.48ZM1578.35,67.11l.71.41.28.16.43.25,20.4,11.78-2.86,16.2-12.59,10.57-21.82-12.6-3.47-6-.08-.14-.64-1.11-11.27-19.51h30.91ZM1623.36,77.68l1.23-1.03.39-.33.49-.41.17-.15,10.32-8.65h24.04l-.12.65-4.06,23.02-12.6,10.57-14.24-8.22h0s-.11-.31-.11-.31l-.15-.4-5.37-14.75ZM1655.52,108.46l2.86-16.2,18.42-15.45h0s12.02,20.82,12.02,20.82l-2.86,16.19-16.2,2.86-14.24-8.22ZM1678.96,75l5.53-4.64.89-.75,7.87,2.87-1.76,9.96-1.93,10.94-10.61-18.38ZM1684.82,66.45l-7.27,6.1-4.75-8.22h-9.5l1.65-9.35-7.27-6.1,2.71-2.28,4.56-3.83-1.65-9.35h9.5l4.75-8.22h0s0,0,0,0l7.27,6.1.75-.28h0s8.16-2.97,8.16-2.97l1.65,9.35,3.59,1.31,5.33,1.94-4.74,8.22h0s3.56,6.18,3.56,6.18l.22.38.96,1.67-8.92,3.24-1.65,9.35-8.92-3.25ZM1696.39,27.1l7.59-2.77,6.21-2.26,1.67-.61,4.48-1.63-.59,1.02-7.85,13.6-2.17,3.75-5.87-2.13-2.01-.73-1.46-8.25ZM1696.76,68.58l1.09-6.17,7.88-2.86,4.2,7.28,6.4,11.09-19.94-7.26.37-2.08ZM1702.77,48.88l4.19-7.25,13.36,4.86,6.58,2.39-13.85,5.04-6.09,2.22-4.19-7.26ZM1708.38,39.18l8.93-15.47,3.09-5.34,15.45-5.63,10.57,12.6v16.44l-15.45,5.63-22.59-8.22ZM1718.49,16.09l-4.18,1.52-10.76,3.92-7.66,2.79-4.17-23.67,8.23-14.24,16.19,2.85h0s10.57,12.6,10.57,12.6l-8.22,14.24ZM1714.9-16.55l-7.85-9.35,3.65-6.32,8.95-15.5,26.77-15.45v30.9l-12.6,21.82-16.19-2.86-2.72-3.24ZM1669.25-21.83l-7.89-1.39-15.78-2.79,1.27-3.48,6.96-19.1h0s14.24-8.23,14.24-8.23l12.6,10.57,2.86,16.19-14.24,8.22ZM1622.87-21.99l.31.05,4.86.86,6.9,1.22-7.19,19.74-1.04,2.85-14.24,8.22-12.6-10.57-2.86-16.19,14.24-8.22,11.61,2.05ZM1593.95-17.25h0s0,0,0,0h0s0,0,0,0l.15.85v.06s.01.05.01.05l2.1,11.89.35,1.99-6.28-5.27-5.27-4.42-19.34,11.16,11.16-19.33h0s0,0,0,0l-.63-.74-2.18-2.6-6.88-8.2,5.74,1.01,8.15,1.44h0s.96.17.96.17l5.03-8.71,2.52-4.35,2.45,13.89.17.96,14.85,2.62-13.06,7.54ZM1573.47-19.97l-6.48,11.22-6.12,10.6-8.97,5.18-17.8,10.27V-13.6l12.6-21.82,16.19,2.86,10.58,12.6ZM1538.96,17.7l19.14-11.05-8.24,14.28-5.45,9.44-.16.27h-10.14v-10.14l4.86-2.81ZM1534.1,67.11h10.14l13.61,23.57.05.09.1.17h0s.09.16.09.16l-24-13.85v-10.14ZM1534.1,80.45l14.81,8.55,11.96,6.91,12.6,21.82-10.57,12.6h0l-1.54.27-14.66,2.58-.72-1.25-11.88-20.57v-30.9ZM1576.84,118.03h0s-11.16-19.34-11.16-19.34l19.34,11.16,11.55-9.69-2.62,14.85h0s0,0,0,0l12.6,7.27.46.27-.95.17-13.89,2.44-.17.96-1.92,10.9-.29,1.63-.1.57-.04.22-.1.58-7.54-13.06-14.85,2.62,9.69-11.55ZM1606.45,119.02l-.13-.07-.28-.16-1.91-1.1-7.12-4.11.19-1.06,2.67-15.13,12.6-10.57,12.95,7.47.26.15,1.04.6.07.2,2.89,7.94,5.26,14.45-13.2,2.33-8.77,1.55-1.01.18-.69.12-4.81-2.78ZM1649.85,135.5l-4.27-11.72,14.48-2.55.34-.06.49-.09,8.38-1.48,14.24,8.22-2.86,16.19-2.36,1.98-10.23,8.58-14.24-8.22-3.95-10.86ZM1699.95,111.36l-8.22-14.24.71-4,3.47-19.67,22.59,8.22,5.79,10.03,2.43,4.21-10.57,12.6-16.19,2.86ZM1720.39,79.4l-.57-.98-.89-1.55-5.89-10.21-4.66-8.08,13.72-5,8.87-3.23h0l15.45,5.63v16.44l-10.57,12.6-15.45-5.63h0ZM1735.03,48.88l14.17-5.16v-15.08l13.64,16.26-3.34,3.98h0s3.34,3.98,3.34,3.98l-12.99,15.48-.65.78v-15.09l-14.17-5.15ZM1764.64,42.74l-7.4-8.82-8.05-9.6V7.88l15.45-5.62,15.45,5.62v16.44l-15.46,18.42ZM1766.18,48.88l-1.53,1.82h0s-1.53-1.82-1.53-1.82l1.53-1.83,1.53,1.83ZM1749.19,73.44l2.53-3.02,8.72-10.39,4.2-5.01,1.77,2.11,13.69,16.31v16.44l-15.45,5.62-15.45-5.62v-16.44ZM1774.38,62.3l-7.92-9.44,3.34-3.98h0s-3.34-3.98-3.34-3.98l4.59-5.47.69-.82.56-.66.64-.76,1.23-1.46,5.94-7.07v15.08l14.17,5.16-14.17,5.15v15.09l-5.72-6.82ZM1842.72-28.63h0s13.05,7.55,13.05,7.55l-14.84,2.62-2.62,14.85-7.54-13.06-.95.17-6.76,1.19-7.13,1.26,9.69-11.55-11.16-19.33,6.44,3.72,4.13,2.38,8.77,5.07.74-.63,6.22-5.22,4.59-3.85-2.62,14.84h0ZM1865.99,64.34h-9.5l-.4.7-1.42,2.46-2.93,5.07-7.27-6.1-8.92,3.25-1.65-9.35-.75-.27-8.17-2.97,4.75-8.22h0s0,0,0,0l-4.74-8.22,5.38-1.96,3.53-1.29,1.65-9.35,8.92,3.25,7.27-6.1h0s0,0,0,0l4.75,8.22h9.5l-1.64,9.35,7.27,6.11-7.27,6.1,1.64,9.35ZM1850.33,75l-9.97,17.28-.64,1.1-3.69-20.9,7.87-2.87,6.42,5.39ZM1825.37,46.89l1.15,1.99-4.19,7.26-8.67-3.15-11.27-4.1,6.58-2.39,13.36-4.86,3.04,5.27ZM1812.96,19.84l15.32,5.57,4.62,1.68-1.46,8.26-7.88,2.86-10.61-18.37ZM1823.57,59.55l1.21.44,6.67,2.43,1.46,8.25-15.67,5.7-4.27,1.55,2.44-4.22,8.17-14.15ZM1836.04,25.28l1.77-10.01,1.74-9.87.18-1.01,10.61,18.38-2.57,2.15-3.85,3.23-6.55-2.38-1.32-.48ZM1858.09,30.65l-4.19-7.25,16.26-13.64-3.68,20.9h-8.39ZM1852.5,20.95l-12.02-20.82,2.86-16.2,16.2-2.85,14.24,8.22-2.86,16.2-18.42,15.45ZM1845.8-30.06l1.18-6.7,1.67-9.49h0s12.6-10.57,12.6-10.57l14.24,8.22,5.34,14.66,2.88,7.92-23.68,4.18-14.24-8.22ZM1829.34-13.6l8.22,14.24-3.69,20.92-.48,2.75-17.07-6.21-5.52-2.01-8.22-14.24,10.57-12.6h0s16.19-2.85,16.19-2.85ZM1810.53,21.18l10.39,18-5.64,2.05-16.95,6.17-15.45-5.63v-16.44l10.57-12.6,15.45,5.63,1.62,2.82ZM1782.87,55.99l15.45-5.63h0l7.67,2.79,14.92,5.43-1.22,2.12-10.8,18.7-8.39,3.06-6.76,2.46-.31.11-10.57-12.6v-16.44ZM1810.8,81.67h0l22.59-8.22.95,5.41,3.22,18.27-8.22,14.24-16.19-2.85-10.57-12.6,8.22-14.24ZM1822.24,123.66l-12.6,21.82-26.77,15.46v-30.92l12.6-21.81,3.88.68,12.31,2.17,10.57,12.6ZM1859.28,120.03l.76-.44,9.83,1.73,13.85,2.44-3.07,8.43-1.31,3.59-3.85,10.57-3.82,2.21-10.42,6.01-12.6-10.57-1.27-7.22-1.58-8.97,13.48-7.79ZM1859.53,116.69l-16.2-2.86-2.86-16.19,12.02-20.82h0s18.42,15.45,18.42,15.45l2.86,16.19-3.56,2.05-3.37,1.95-2.69,1.55-4.62,2.67ZM1853.9,74.37l4.19-7.26h8.39l3.69,20.9-16.26-13.64ZM1867.35,56.08l6.42-5.39,16.25,13.64h-21.22l-1.45-8.26ZM1873.77,47.07l-6.41-5.38,1.45-8.25h21.22l-16.25,13.64ZM1896.41-6.08l.63,1.73,1.79,4.92-13.06-7.54-11.55,9.7,2.62-14.85-13.05-7.54,6.4-1.13,14.49-2.56,1.78,4.89,5.11-.91h0l4.84,13.29ZM1887.46-23.85l2.34-.41.81,2.23-2.34.41-.81-2.23ZM1914.28-26.2l-20.9,3.68-1.78-4.88-2.44.43-2.68.47-7.26-19.93,13.06,7.53,11.55-9.69-2.45,13.89-.17.95h0s0,0,0,0l.84.49,12.21,7.05ZM1919.97-76.52l4.19,7.25-16.26,13.64,3.68-20.9h8.38ZM1904.3-92.94l6.42,5.39-1.46,8.26h-21.22l16.26-13.64ZM1884.73-76.52h24.04l-4.17,23.67-12.6,10.57-14.24-8.23-.8-2.19-4.82-13.26,3.62-3.04,8.97-7.52ZM1855.01-76.52l.33-.92h0s2.22-6.11,2.22-6.11l2.6-7.14,5.16,14.17h15.08l-11.55,9.69.44,1.22,2.35,6.46,2.36,6.49-13.06-7.54-11.55,9.69,1.8-10.22.27-1.54.54-3.09h0s-7.14-4.12-7.14-4.12l-12.19-7.04h22.32ZM1848.95-63.93l-2.86,16.19-11.81,9.91-.79.66-21.82-12.6-15.45-26.76h30.9l21.82,12.59ZM1789.55-88.08l8.78-5.07,4.64,2.68,19.34,11.17h-27.69l-5.07-8.78ZM1782.87-76.52h10.14l9.09,15.75,3.76,6.51.99,1.72-23.99-13.85v-10.13ZM1782.87-63.17l18.82,10.86,7.95,4.59,12.6,21.82-10.57,12.6-13.04,2.3-3.15.55-12.6-21.82v-30.9ZM1782.87-4.38v-22.33l11.17,19.34.96-.17h0s13.89-2.44,13.89-2.44l-9.69,11.55h0s7.54,13.06,7.54,13.06l-14.16-5.16-.63.74-2.56,3.05-1.72,2.05-4.8,5.72V5.93l-14.16-5.16,14.16-5.16ZM1771.32-69.85l8.78,5.07v27.7l-13.85-23.99,5.07-8.78ZM1749.19-64.78l1.52-.88,7.26-4.19,5.07,8.78-13.85,23.99v-27.7ZM1749.19-31.52l15.45-26.77,15.45,26.77V-6.33l-15.45,5.62-15.45-5.62v-25.19ZM1760.58.78l-14.16,5.16v15.08l-9.7-11.55-.91.33-6.85,2.49-6.4,2.33,7.54-13.05h0s-9.69-11.56-9.69-11.56l14.84,2.61,6.44-11.15,4.73-8.18V-4.38l.91.33h0s13.25,4.83,13.25,4.83ZM1746.42-76.52v10.13l-23.99,13.85,13.85-23.98h10.14ZM1730.96-93.15l8.78,5.07-5.07,8.78h-27.69l23.98-13.84ZM1702.16-76.52h30.91l-15.45,26.76h0s-21.83,12.6-21.83,12.6l-12.6-10.57-2.86-16.2,21.82-12.59ZM1663.96-76.52h0s5.16-14.17,5.16-14.17l5.16,14.17h22.32l-19.33,11.16h0s.03.2.03.2l.03.14v.09s.1.52.1.52l2.45,13.89-11.55-9.69-13.06,7.54.87-2.4,4.28-11.77-11.55-9.69h15.07ZM1657.16-65.95l-2.18,5.98-1.89,5.21-.06.15-1.49,4.1-14.24,8.23-12.6-10.57-1.09-6.2-3.08-17.47h24.04l12.6,10.57ZM1625-92.94h0l10.17,8.54,6.08,5.1h-21.22l-1.45-8.26,6.41-5.38ZM1609.32-76.52h8.39l3.69,20.9-7.89-6.62-.14-.12-.37-.31-.95-.8-2.55-2.14-4.36-3.66,4.19-7.25ZM1603.72-66.82l2.3,1.93,16.12,13.53,1.03,5.85,1.82,10.34-14.24,8.22-14.14-2.49h-.08s-.2-.05-.2-.05l-.43-.08-.45-.08h-.04s-.31-.06-.31-.06l-.55-.1-2.86-16.19,12.02-20.82ZM1595.14-74.03l6.42,5.39-10.61,18.38-.9-5.1-2.78-15.8,7.87-2.87ZM1586.45-59.78l.51,2.87,1.83,10.39-.04.06-.02.04v.03s-.05.06-.05.06l-.3.52-7.82,13.54-16.19-2.85-10.57-12.6,8.22-14.24,7.91-2.88,14.68-5.34,1.84,10.42ZM1574.8-84.09l7.87,2.86,1.46,8.25-19.94,7.25,10.61-18.37ZM1534.1-87.66l15.46-5.62,5.72,2.08,16.86,6.14-12.02,20.81h0l-2.59.94-12.86,4.69-10.57-12.6v-16.45ZM1534.1-51.81v-15.08h0s9.7,11.56,9.7,11.56l14.17-5.16-1.72,2.99-5.33,9.23-.49.84h0s9.69,11.56,9.69,11.56l-14.85-2.62-11.17,19.34v-22.33l-.91-.33-6.79-2.47-6.47-2.36,14.17-5.16ZM1500.42-70.2l5.55-6.61,9.91-11.81,1.96,2.33,13.5,16.09v16.44l-15.46,5.63-15.46-5.63v-16.44ZM1511.82-46.65l-14.17,5.16v22.33l-11.17-19.34-9.48,1.67-5.37.95,9.7-11.56-7.54-13.06,14.17,5.16,9.7-11.55v15.08l14.17,5.16ZM1469.19-88.55l13-4.73,7.53,2.74,7.93,2.88v16.45l-10.57,12.6-15.45-5.63-12.02-20.82,9.59-3.49ZM1449.07-81.23l7.88-2.86,10.61,18.37-15.88-5.77-4.06-1.48,1.46-8.26ZM1440.79-50.25l-10.61-18.39.64-.53h.01s5.77-4.85,5.77-4.85l6.55,2.38,1.32.48-.47,2.65-3.22,18.25ZM1451.18-32.28l-3.59-6.21-4.64-8.03,4.17-23.68,22.59,8.22,8.22,14.24-10.57,12.6-16.2,2.85ZM1458.28-19.97l10.57-12.6,8.8-1.55,7.4-1.31,1.86,3.23,10.74,18.6v30.91l-26.77-15.46-12.6-21.82ZM1431.56,18.05l2.86-16.2,12.6-10.57,21.82,12.59,4.59,7.95,10.86,18.82h-30.91l-21.83-12.6ZM1458.2,33.42h27.7l5.07,8.78-8.78,5.07-23.99-13.85ZM1467.9,58.73l14.29-8.25,8.78,5.07-5.07,8.78h-27.7l9.7-5.6ZM1447.02,106.47l-12.6-10.57-2.86-16.2,21.82-12.59h30.91l-15.45,26.77-21.82,12.6ZM1459.06,118.66l-.78-.93,12.6-21.82,26.77-15.45v30.91l-12.6,21.82-16.19-2.85-1.99-2.37-7.8-9.29ZM1436.6,171.78h0l-6.42-5.38,10.61-18.38,3.69,20.9-7.88,2.87ZM1447.13,167.95l-4.18-23.68,8.23-14.24,16.2,2.85,10.57,12.6-8.22,14.24-22.22,8.08-.37.13ZM1456.95,181.85l-7.88-2.87-1.46-8.26,19.95-7.26h0s-9.18,15.91-9.18,15.91l-1.43,2.47ZM1497.64,185.41l-15.45,5.62-12.47-4.54-10.12-3.68,12.02-20.82h0l15.45-5.63,10.57,12.6v16.45ZM1497.64,164.64l-9.7-11.55-.91.33-7.16,2.61-6.09,2.22,7.54-13.06-9.7-11.55,14.85,2.61,11.17-19.34v22.33l.91.33,13.26,4.83-14.17,5.16v15.08ZM1531.33,167.95l-3.57,4.26-2.17,2.58-9.72,11.58-15.46-18.42v-16.44l15.46-5.62,15.46,5.62v16.44ZM1519.93,144.41l14.17-5.16v-22.34s11.17,19.34,11.17,19.34l.96-.17h0s13.9-2.45,13.9-2.45h0s0,0,0,0l-9.69,11.56h0s4.96,8.6,4.96,8.6l.2.34,2.38,4.12-14.17-5.16-2.45,2.92-5.15,6.13-2.1,2.5v-15.08l-14.17-5.16ZM1568.14,184.27l-18.58,6.76-15.46-5.63v-16.46l10.57-12.59,15.45,5.63h0l1.37,2.37.45.79,1.2,2.09,8.99,15.58-4.01,1.46ZM1583.77,172.74l-1.1,6.24-7.88,2.87-10.61-18.38,7.85,2.85,12.09,4.4-.35,2.01ZM1584.62,167.95h0s-22.59-8.22-22.59-8.22l-8.22-14.24,10.57-12.6,16.2-2.86,8.23,14.24-.24,1.36-.28,1.6-3.65,20.71ZM1598.99,168.56l-3.85,3.22-7.87-2.87,2.45-13.89.23-1.32.59-3.36.41-2.34,1.04,1.8,4.57,7.92,5,8.66-2.57,2.16ZM1591.7,143.76h0s.62-3.5.62-3.5l.11-.64,2.13-12.06,4.38-.77,9.76-1.72,2.05-.36,9.87,5.7,4.37,2.52-.97,5.52-1.3,7.35h0s-.03.15-.03.15l-.56,3.17-18.42,15.46-12.02-20.82ZM1617.7,174.28h-8.39l-4.19-7.25,7.86-6.6,8.39-7.04-3.07,17.42-.61,3.48ZM1640.59,177.61l-15.6,13.08-6.41-5.39,1.22-6.97.23-1.28h21.22l-.65.55ZM1644.56,174.28h-24.04l4.17-23.67,12.6-10.57,14.24,8.22,5.62,15.46-12.6,10.57ZM1674.28,174.28l-5.16,14.17-5.16-14.17h-15.08l11.54-9.69h0s-.33-.92-.33-.92h0s-4.83-13.25-4.83-13.25l.98.57,12.07,6.97,11.55-9.69-2.62,14.84h0,0s2.38,1.38,2.38,1.38l9.56,5.52,7.39,4.27h-22.33ZM1680.34,161.68l.18-1.01,2.68-15.17,1.64-1.37,1.99-1.67,8.97-7.53,21.82,12.6,3.29,5.7,12.16,21.07h-30.9l-21.82-12.6ZM1738.99,184.54l.75,1.3-8.78,5.07-23.98-13.85h27.69l4.32,7.47ZM1746.42,174.28h-10.14l-13.85-23.99,15.43,8.91,8.56,4.94v10.14ZM1746.42,160.92l-26.77-15.45-12.6-21.82.15-.18.1-.12h0s.01-.02.01-.02l10.3-12.27,16.19-2.84,12.6,21.82v30.89ZM1746.42,124.48l-11.17-19.34-14.85,2.62,9.69-11.54h0s-7.54-13.06-7.54-13.06l8.18,2.98,2.7.98.22.08.18.06,2.89,1.05,9.7-11.55v15.08l.91.33h0s13.25,4.83,13.25,4.83l-14.16,5.16v22.33ZM1757.97,167.62l-8.78-5.07v-27.7l13.85,23.99-5.07,8.78ZM1780.1,162.53l-5.62,3.25-3.16,1.83-.54-.94-4.52-7.84,13.85-23.98v27.69ZM1780.1,129.28l-15.45,26.77-15.45-26.77v-25.19l15.45-5.62,15.45,5.62v25.19ZM1768.71,96.99l14.16-5.16v-15.08l9.7,11.55,14.17-5.15-7.54,13.05h0s9.7,11.56,9.7,11.56l-14.85-2.62-11.17,19.34v-22.33l-14.16-5.16ZM1782.87,174.28v-10.15l11.3-6.52,12.69-7.31-7.98,13.82-5.87,10.17h-10.14ZM1798.33,190.91l-8.78-5.07,4.56-7.9.51-.88h27.7l-23.99,13.85ZM1827.13,174.28h-30.91l15.45-26.76,21.83-12.6,4.49,3.77,8.11,6.81.96,5.44.14.82.2,1.13,1.55,8.81-.21.12-.2.12-.54.31-.86.5-.89.51-19.13,11.04ZM1865.33,174.28l-5.16,14.17-5.16-14.17h-22.33l19.34-11.17-.17-.96-.17-.97-2.28-12.92,11.55,9.69,13.06-7.54-5.15,14.17.74.63,6.43,5.39,1.5,1.26,2.88,2.41h-15.08ZM1905.11,190.02l-.81.68-16.25-13.64h21.22l1.46,8.26-5.61,4.7ZM1914.16,158.64l6.69,5.61,3.31,2.78-4.19,7.26h-8.38l-3.68-20.9,6.26,5.25ZM1904.6,150.61l3.75,21.27.42,2.41h-24.04l-12.6-10.57,5.62-15.45,14.24-8.22,12.6,10.57ZM1906.39,122.57l4.26.75,3.63.64-13.06,7.54.17.96,2.45,13.89-11.55-9.69-13.06,7.54,7.26-19.94h0s5.11.9,5.11.9l1.78-4.88,13,2.29ZM1887.46,121.61l.81-2.23.87.15,1.47.26-.81,2.23-2.34-.41ZM1893.04,113.11l-1.47,4.03-5.12-.91-1.78,4.89-20.9-3.69,13.06-7.54-.17-.96-2.45-13.89,11.55,9.69,13.06-7.54-5.79,15.91ZM1905.94,77.68l-5.63,15.45-10.51,6.07-3.74,2.16-12.6-10.57-4.18-23.68h24.04l12.61,10.57ZM1914.04,55.43l-3.24,8.91h-16.45l-8.33-6.99-10.09-8.47,18.42-15.45h16.45l5.62,15.45-2.38,6.55Z"/>
</svg>
